<?xml version="1.0" encoding="iso-8859-1"?>
<!-- Generator: Adobe Illustrator 19.0.0, SVG Export Plug-In . SVG Version: 6.00 Build 0)  -->
<svg version="1.1" id="Capa_1" xmlns="http://www.w3.org/2000/svg" xmlns:xlink="http://www.w3.org/1999/xlink" x="0px" y="0px"
	 viewBox="0 0 512.001 512.001" style="enable-background:new 0 0 512.001 512.001;" xml:space="preserve">
<g>
	<g>
		<path style="fill:#BDC3C7;" d="M114.759,105.931c-3.684,0.001-6.981-2.285-8.272-5.736c-1.29-3.451-0.302-7.34,2.479-9.756
			l30.078-26.138l-22.319-42.595c-2.213-4.329-0.51-9.633,3.81-11.864c4.32-2.231,9.631-0.55,11.88,3.761l25.5,48.758
			c1.868,3.618,1.021,8.044-2.052,10.716l-35.31,30.69C118.946,105.165,116.888,105.933,114.759,105.931z"/>
		<path style="fill:#BDC3C7;" d="M79.449,238.345H185.38v44.138c0,9.751-7.904,17.655-17.655,17.655H97.104
			c-9.751,0-17.655-7.905-17.655-17.655V238.345z"/>
	</g>
	<path style="fill:#41767F;" d="M229.518,132.414c19.501,0,35.31,15.809,35.31,35.31s-15.809,35.31-35.31,35.31H35.311
		c-19.501,0-35.31-15.809-35.31-35.31s15.809-35.31,35.31-35.31H229.518z"/>
	<path style="fill:#D1D4D1;" d="M52.966,88.276h158.897c9.751,0,17.655,7.904,17.655,17.655v123.586
		c0,9.751-7.904,17.655-17.655,17.655H52.966c-9.751,0-17.655-7.904-17.655-17.655V105.931
		C35.311,96.181,43.215,88.276,52.966,88.276z"/>
	<path style="fill:#F29C1F;" d="M459.035,467.862c0,0,44.138,26.483,52.966,44.138H300.138
		c8.828-17.655,52.966-44.138,52.966-44.138H459.035z"/>
	<g>
		<path style="fill:#46B29D;" d="M97.104,150.069c-2.342,0.001-4.588-0.928-6.244-2.584c-1.656-1.656-2.585-3.902-2.584-6.244
			v-17.655c0-4.875,3.952-8.828,8.828-8.828c4.875,0,8.828,3.952,8.828,8.828v17.655c0.001,2.342-0.928,4.588-2.584,6.244
			C101.692,149.141,99.446,150.071,97.104,150.069z"/>
		<path style="fill:#46B29D;" d="M167.725,150.069c-2.342,0.001-4.588-0.928-6.244-2.584s-2.585-3.902-2.584-6.244v-17.655
			c0-4.875,3.952-8.828,8.828-8.828c4.875,0,8.828,3.952,8.828,8.828v17.655c0.001,2.342-0.928,4.588-2.584,6.244
			S170.066,150.071,167.725,150.069z"/>
	</g>
	<path style="fill:#F29C1F;" d="M132.414,211.863c-11.114,0-21.58-5.233-28.248-14.124l-5.297-7.062
		c-2.006-2.675-2.329-6.254-0.834-9.244c1.495-2.991,4.552-4.88,7.896-4.88h52.966c3.344,0,6.4,1.889,7.896,4.88
		s1.173,6.569-0.834,9.244l-5.297,7.062C153.994,206.63,143.528,211.863,132.414,211.863z"/>
	<g>
		<circle style="fill:#46B29D;" cx="123.587" cy="17.656" r="17.655"/>
		<path style="fill:#46B29D;" d="M512,14.713v94.161c-0.063,8.188-6.751,14.775-14.939,14.713H379.587l-61.793,52.966V14.713
			C317.856,6.525,324.545-0.062,332.733,0h164.329C505.249-0.062,511.938,6.525,512,14.713z"/>
	</g>
	<g>
		<path style="fill:#ECF0F1;" d="M423.725,52.966h-70.621c-4.875,0-8.828-3.952-8.828-8.828s3.952-8.828,8.828-8.828h70.621
			c4.875,0,8.828,3.952,8.828,8.828S428.6,52.966,423.725,52.966z"/>
		<path style="fill:#ECF0F1;" d="M476.69,52.966h-17.655c-4.875,0-8.828-3.952-8.828-8.828s3.952-8.828,8.828-8.828h17.655
			c4.875,0,8.828,3.952,8.828,8.828S481.565,52.966,476.69,52.966z"/>
		<path style="fill:#ECF0F1;" d="M423.725,88.276c-1.153-0.014-2.293-0.254-3.353-0.707c-1.07-0.447-2.056-1.074-2.914-1.854
			c-2.467-2.554-3.228-6.308-1.948-9.621c0.473-1.078,1.132-2.065,1.948-2.914c0.418-0.379,0.859-0.733,1.319-1.06
			c0.493-0.336,1.03-0.603,1.595-0.793c0.5-0.255,1.034-0.435,1.586-0.535c1.132-0.259,2.308-0.259,3.44,0
			c0.586,0.086,1.153,0.267,1.681,0.535c0.543,0.174,1.051,0.442,1.5,0.793c0.507,0.304,0.98,0.66,1.415,1.06
			c0.817,0.829,1.449,1.822,1.854,2.914c1.409,3.284,0.675,7.096-1.854,9.621c-0.845,0.797-1.834,1.426-2.914,1.854
			C426.017,88.022,424.878,88.262,423.725,88.276z"/>
		<path style="fill:#ECF0F1;" d="M388.414,88.276h-35.31c-4.875,0-8.828-3.952-8.828-8.828c0-4.875,3.952-8.828,8.828-8.828h35.31
			c4.875,0,8.828,3.952,8.828,8.828C397.242,84.324,393.29,88.276,388.414,88.276z"/>
	</g>
	<path style="fill:#4482C3;" d="M52.966,497.288v-94.161c0.063-8.188,6.751-14.775,14.939-14.713l223.406,0l-44.138,44.138v64.736
		c-0.063,8.188-6.751,14.775-14.939,14.713H67.905C59.717,512.063,53.029,505.476,52.966,497.288z"/>
	<g>
		<path style="fill:#ECF0F1;" d="M211.863,476.69h-70.621c-4.875,0-8.828-3.952-8.828-8.828c0-4.875,3.952-8.828,8.828-8.828h70.621
			c4.875,0,8.828,3.952,8.828,8.828C220.69,472.738,216.738,476.69,211.863,476.69z"/>
		<path style="fill:#ECF0F1;" d="M105.931,476.69H88.276c-4.875,0-8.828-3.952-8.828-8.828c0-4.875,3.952-8.828,8.828-8.828h17.655
			c4.875,0,8.828,3.952,8.828,8.828C114.759,472.738,110.807,476.69,105.931,476.69z"/>
		<path style="fill:#ECF0F1;" d="M141.242,441.38c-2.953,0.031-5.722-1.433-7.361-3.89c-1.638-2.457-1.924-5.576-0.76-8.291
			c0.447-1.07,1.074-2.056,1.854-2.914c0.418-0.379,0.859-0.733,1.319-1.06c0.493-0.336,1.03-0.603,1.595-0.793
			c0.5-0.255,1.034-0.435,1.586-0.534c2.908-0.577,5.913,0.316,8.035,2.388c0.78,0.858,1.407,1.844,1.854,2.914
			c1.409,3.284,0.675,7.096-1.854,9.621c-0.859,0.778-1.845,1.405-2.914,1.854C143.535,441.126,142.395,441.366,141.242,441.38z"/>
		<path style="fill:#ECF0F1;" d="M211.863,441.38h-35.31c-4.875,0-8.828-3.952-8.828-8.828s3.952-8.828,8.828-8.828h35.31
			c4.875,0,8.828,3.952,8.828,8.828S216.738,441.38,211.863,441.38z"/>
	</g>
	<path style="fill:#AF8066;" d="M505.645,306.847c-1.6-5.531-5.441-10.14-10.593-12.711c1.016-12.725,0.927-25.514-0.265-38.224
		c-1.766-18.538-6.532-38.4-18.097-49.964c-26.483-26.483-79.448,0-79.448,0c-79.89-14.566-82.097,60.028-80.331,85.451
		c0.012,0.915,0.07,1.828,0.176,2.737c-5.151,2.571-8.992,7.18-10.593,12.711c-1.497,5.285-0.797,10.951,1.942,15.713
		c3.185,3.794,5.775,8.051,7.681,12.623c1.766,7.151,0.352,13.948,8.297,17.743c2.112,0.93,4.402,1.382,6.709,1.324
		c0.53,5.297,0.794,10.152,0.794,13.505c0,12.977,12.801,30.279,21.363,39.018c3.53,3.531,7.768,7.15,12.094,10.682l-12.27,50.406
		h105.931l-12.27-50.405c4.326-3.531,8.564-7.151,12.094-10.682c8.563-8.739,21.363-26.041,21.363-39.018
		c0-3.353,0.264-8.209,0.794-13.505c6.076,0.428,11.67-3.314,13.594-9.092c0.794-3.09,0.794-6.356,1.5-9.446
		c1.937-4.866,4.585-9.417,7.858-13.506C506.534,317.51,507.137,311.988,505.645,306.847z"/>
	<path style="fill:#59474E;" d="M494.787,255.912L494.345,256c0,0-35.31,17.655-61.793,8.828
		c-26.483-8.828-26.483-17.655-61.793-17.655s-52.966,44.138-52.966,44.138l-0.883,0.088c-1.766-25.423,0.441-100.017,80.331-85.451
		c0,0,52.966-26.483,79.448,0C488.255,217.512,493.021,237.374,494.787,255.912z"/>
	<path style="fill:#7F5B53;" d="M459.035,467.862c-34.329,11.77-71.602,11.77-105.931,0l12.27-50.405
		c6.174,4.781,12.096,9.878,17.743,15.272c4.421,4.93,10.534,8.018,17.126,8.651h11.651c6.592-0.633,12.705-3.721,17.126-8.651
		c5.647-5.393,11.569-10.491,17.743-15.272L459.035,467.862z"/>
</g>
<g>
</g>
<g>
</g>
<g>
</g>
<g>
</g>
<g>
</g>
<g>
</g>
<g>
</g>
<g>
</g>
<g>
</g>
<g>
</g>
<g>
</g>
<g>
</g>
<g>
</g>
<g>
</g>
<g>
</g>
</svg>
